<svg viewBox="0 0 88.68097375246056 90.37689945583926" height="90.37689945583926"
  width="88.68097375246056">
  <g>
    <svg xmlns="http://www.w3.org/2000/svg"
      xmlns:xlink="http://www.w3.org/1999/xlink" version="1.1" x="0" y="0"
      viewBox="7.753132604393295 6.846 84.25177777899032 85.863"
      enable-background="new 0 0 100 100" xml:space="preserve"
      height="90.37689945583926" width="88.68097375246056" class="icon-icon-0"
      data-fill-palette-color="accent" id="icon-0"><path d="M63.495 8.708c5.265 0 10.491 2.232 14.152 6.568 6.596 7.812 5.613 19.491-2.198 26.088-3.476 2.934-7.718 4.369-11.937 4.369-5.264 0-10.49-2.232-14.151-6.568-6.6-7.812-5.612-19.492 2.199-26.088C55.035 10.142 59.278 8.708 63.495 8.708M63.497 6.846L63.497 6.846c-4.8 0-9.465 1.708-13.137 4.807-4.159 3.513-6.7 8.433-7.158 13.855-0.458 5.423 1.225 10.7 4.737 14.857 3.877 4.594 9.555 7.229 15.572 7.229 4.799 0 9.466-1.707 13.139-4.808 8.581-7.248 9.666-20.127 2.419-28.712C75.19 9.481 69.515 6.846 63.497 6.846L63.497 6.846z" fill="#007a7c" data-fill-palette-color="accent"></path><circle cx="71.644" cy="72.337" r="17" fill="#007a7c" data-fill-palette-color="accent"></circle><path d="M71.633 53.824c5.264 0 10.491 2.231 14.151 6.567 6.597 7.814 5.614 19.492-2.197 26.09-3.475 2.935-7.718 4.368-11.937 4.368-5.264 0-10.489-2.232-14.15-6.569-6.599-7.811-5.613-19.49 2.199-26.089C63.174 55.258 67.415 53.824 71.633 53.824M71.634 51.962L71.634 51.962c-4.798 0-9.464 1.708-13.135 4.806-4.159 3.514-6.702 8.434-7.158 13.857-0.457 5.423 1.225 10.699 4.737 14.855 3.877 4.594 9.554 7.229 15.572 7.229 4.8 0 9.465-1.707 13.138-4.808 8.58-7.248 9.666-20.128 2.417-28.711C83.328 54.598 77.651 51.962 71.634 51.962L71.634 51.962z" fill="#007a7c" data-fill-palette-color="accent"></path><path d="M16.042 44.718c-0.218 0.225-0.418 0.466-0.624 0.704l21.394 25.332c0.268-0.162 0.539-0.319 0.796-0.498 0.258-0.175 0.498-0.367 0.747-0.558l-21.636-25.62C16.492 44.289 16.26 44.494 16.042 44.718z" fill="#007a7c" data-fill-palette-color="accent"></path><path d="M13.898 47.47c-0.174 0.278-0.342 0.561-0.499 0.848l20.216 23.946c0.312-0.11 0.618-0.228 0.92-0.354 0.299-0.122 0.59-0.26 0.882-0.399L14.441 46.667C14.254 46.932 14.07 47.196 13.898 47.47z" fill="#007a7c" data-fill-palette-color="accent"></path><path d="M12.282 50.846c-0.12 0.345-0.236 0.689-0.334 1.046l17.905 21.203c0.366-0.038 0.724-0.095 1.084-0.155 0.353-0.062 0.702-0.122 1.047-0.203L12.657 49.848C12.518 50.173 12.402 50.51 12.282 50.846z" fill="#007a7c" data-fill-palette-color="accent"></path><path d="M11.384 54.975c-0.002 0.031 0.001 0.063-0.002 0.094-0.037 0.468-0.048 0.928-0.047 1.389L25.25 72.934c0.451 0.079 0.909 0.145 1.375 0.188 0.031 0.002 0.061 0.009 0.091 0.012 0.395 0.032 0.782 0.031 1.171 0.039L11.542 53.816C11.481 54.2 11.419 54.581 11.384 54.975z" fill="#007a7c" data-fill-palette-color="accent"></path><path d="M12.017 61.107c0.272 0.933 0.625 1.829 1.048 2.687l5.236 6.203c0.778 0.561 1.603 1.059 2.472 1.483 0.604 0.295 1.229 0.55 1.873 0.773L11.569 59.139C11.681 59.808 11.828 60.467 12.017 61.107z" fill="#007a7c" data-fill-palette-color="accent"></path><path d="M29.631 39.654c-0.03-0.002-0.058-0.009-0.09-0.012-0.393-0.032-0.781-0.032-1.17-0.039l16.345 19.356c0.061-0.384 0.123-0.77 0.159-1.16 0.001-0.031 0-0.06 0.001-0.092 0.037-0.468 0.05-0.927 0.047-1.389L31.007 39.841C30.555 39.762 30.099 39.697 29.631 39.654z" fill="#007a7c" data-fill-palette-color="accent"></path><path d="M35.482 41.293c-0.602-0.294-1.229-0.55-1.869-0.773l11.077 13.118c-0.11-0.67-0.259-1.329-0.447-1.973-0.273-0.93-0.625-1.825-1.048-2.683l-5.241-6.207C37.177 42.214 36.354 41.717 35.482 41.293z" fill="#007a7c" data-fill-palette-color="accent"></path><path d="M25.319 39.836c-0.352 0.06-0.704 0.12-1.049 0.202l19.332 22.89c0.137-0.327 0.256-0.664 0.374-1.002 0.119-0.345 0.238-0.688 0.337-1.043L26.407 39.679C26.04 39.717 25.68 39.775 25.319 39.836z" fill="#007a7c" data-fill-palette-color="accent"></path><path d="M21.719 40.864c-0.296 0.124-0.589 0.26-0.878 0.4l20.978 24.841c0.188-0.263 0.37-0.527 0.542-0.801 0.175-0.279 0.342-0.561 0.499-0.85L22.642 40.511C22.33 40.62 22.022 40.738 21.719 40.864z" fill="#007a7c" data-fill-palette-color="accent"></path><path d="M18.648 42.517c-0.255 0.176-0.499 0.371-0.745 0.561L39.54 68.699c0.229-0.214 0.46-0.419 0.676-0.644 0.218-0.226 0.419-0.466 0.625-0.703L19.448 42.019C19.178 42.182 18.909 42.341 18.648 42.517z" fill="#007a7c" data-fill-palette-color="accent"></path><path d="M28.12 37.875c5.264 0 10.493 2.232 14.154 6.568 6.595 7.812 5.612 19.49-2.199 26.088-3.476 2.935-7.718 4.37-11.937 4.37-5.264 0-10.491-2.233-14.152-6.57C7.387 60.52 8.374 48.84 16.186 42.242 19.66 39.309 23.902 37.875 28.12 37.875M28.121 36.013L28.121 36.013c-4.799 0-9.465 1.708-13.137 4.808-4.158 3.513-6.7 8.432-7.157 13.855-0.458 5.423 1.225 10.7 4.737 14.856 3.877 4.595 9.555 7.229 15.573 7.229 4.799 0 9.465-1.708 13.137-4.808 8.583-7.248 9.668-20.128 2.42-28.712C39.816 38.648 34.139 36.013 28.121 36.013L28.121 36.013z" fill="#007a7c" data-fill-palette-color="accent"></path><path d="M51.033 15.852c0.105-0.119 0.21-0.238 0.324-0.352 0.082-0.087 0.17-0.172 0.258-0.256l21.7 25.698c-0.096 0.074-0.193 0.145-0.293 0.214-0.132 0.09-0.267 0.174-0.401 0.258L51.033 15.852z" fill="#007a7c" data-fill-palette-color="accent"></path><path d="M48.881 18.792c0.104-0.178 0.213-0.353 0.32-0.527 0.047-0.075 0.094-0.148 0.142-0.221l20.833 24.67c-0.078 0.036-0.158 0.07-0.24 0.103-0.19 0.079-0.381 0.155-0.575 0.227L48.881 18.792z" fill="#007a7c" data-fill-palette-color="accent"></path><path d="M47.321 22.43c0.079-0.261 0.167-0.517 0.258-0.775 0.018-0.052 0.035-0.101 0.052-0.153l18.85 22.319c-0.054 0.009-0.107 0.018-0.16 0.025-0.268 0.046-0.537 0.089-0.808 0.125L47.321 22.43z" fill="#007a7c" data-fill-palette-color="accent"></path><path d="M61.985 44.031c-0.399-0.036-0.793-0.09-1.185-0.155L46.627 27.092c0.001-0.395 0.015-0.794 0.046-1.196l0.003-0.042 15.353 18.183L61.985 44.031z" fill="#007a7c" data-fill-palette-color="accent"></path><path d="M55.925 42.294c-0.772-0.39-1.527-0.846-2.243-1.36l-5.346-6.33c-0.387-0.791-0.71-1.609-0.968-2.438L55.925 42.294z" fill="#007a7c" data-fill-palette-color="accent"></path><path d="M64.964 10.404c0.46 0.046 0.854 0.099 1.232 0.162L80.37 27.351c-0.002 0.397-0.016 0.794-0.047 1.197l-0.002 0.042L64.964 10.404z" fill="#007a7c" data-fill-palette-color="accent"></path><path d="M71.071 12.149c0.773 0.388 1.528 0.846 2.242 1.358l5.351 6.335c0.382 0.791 0.706 1.609 0.963 2.437L71.071 12.149z" fill="#007a7c" data-fill-palette-color="accent"></path><path d="M60.514 10.622c0.054-0.009 0.106-0.018 0.161-0.026 0.27-0.047 0.536-0.091 0.807-0.125l18.192 21.541c-0.078 0.261-0.167 0.517-0.256 0.775-0.02 0.052-0.037 0.102-0.055 0.153L60.514 10.622z" fill="#007a7c" data-fill-palette-color="accent"></path><path d="M56.817 11.73c0.08-0.035 0.16-0.07 0.242-0.103 0.188-0.08 0.383-0.156 0.575-0.228l20.48 24.253c-0.104 0.178-0.212 0.354-0.322 0.528-0.045 0.073-0.093 0.148-0.142 0.222L56.817 11.73z" fill="#007a7c" data-fill-palette-color="accent"></path><path d="M53.68 13.501c0.098-0.074 0.194-0.145 0.294-0.214 0.132-0.09 0.266-0.174 0.402-0.258L75.963 38.59c-0.104 0.121-0.215 0.239-0.322 0.354-0.086 0.088-0.172 0.172-0.26 0.254L53.68 13.501z" fill="#007a7c" data-fill-palette-color="accent"></path></svg>
  </g>
</svg>